<?xml version="1.0" encoding="UTF-8" standalone="no"?>
<!-- Created with Inkscape (http://www.inkscape.org/) -->

<svg
   viewBox="-25 -25 50 50"
   version="1.1"
   id="svg1"
   xml:space="preserve"
   width="50"
   height="50"
   xmlns="http://www.w3.org/2000/svg"><defs
   id="defs1" />
    <g
   id="around"
   transform="matrix(1.0524231,0,0,0.90760353,-124.86524,-126.11077)">
        <path
   style="fill:#000000;fill-opacity:1;stroke-width:0.264583"
   d="m 95.813602,136.81988 c -0.0089,-3.66873 0.168458,-8.4255 1.74119,-12.4823 1.572735,-4.05679 3.468108,-8.15153 6.329568,-10.63259 1.85992,-1.61266 3.35804,-1.72672 4.96656,-1.75884 1.60852,-0.0322 18.75235,0.0731 21.95079,0.0328 3.19844,-0.0403 5.19458,1.92758 7.41729,6.86776 2.21677,4.92697 3.85837,11.96944 3.58074,20.1347 -0.27763,8.16527 -2.17053,16.27366 -5.49612,20.82097 -3.3256,4.54732 -8.04505,7.23107 -18.44176,7.03265 -10.39671,-0.19843 -15.30671,-3.5861 -19.062004,-10.64098 -3.755297,-7.05487 -2.986254,-19.37417 -2.986254,-19.37417 z"
   id="path1" />
        <path
   style="fill:#ffffff;fill-opacity:1;stroke-width:0.240652"
   d="m 97.508508,137.55304 c 0.02603,-3.28775 0.234121,-7.54959 1.723776,-11.17719 1.489666,-3.62757 3.021606,-8.70124 5.769816,-10.81139 2.74819,-2.11015 3.45654,-0.55474 4.9417,-0.57547 1.48515,-0.0207 20.09527,0.39841 20.09527,0.39841 0,0 4.58996,1.93235 6.78209,6.27162 2.19212,4.33927 3.45002,10.74563 3.11756,18.06147 -0.33247,7.31584 -2.15547,14.57261 -5.26781,18.63098 -3.11232,4.05837 -7.49395,6.43974 -17.08943,6.20983 -9.59548,-0.2299 -14.09635,-3.29033 -17.49709,-9.63132 -3.400733,-6.34097 -2.575882,-17.37694 -2.575882,-17.37694 z"
   id="path1-2" />
        <path
   style="fill:#000000;fill-opacity:1;stroke-width:0.232934"
   d="m 97.943504,138.04324 c 0.03142,-3.1437 0.242991,-7.21911 1.709131,-10.69038 1.466155,-3.47124 4.068945,-8.09263 6.765545,-10.11523 2.69658,-2.02262 2.29525,-0.76931 3.7505,-0.7918 1.45526,-0.0225 19.68939,0.34477 19.68939,0.34477 0,0 4.49392,1.83939 6.63404,5.98452 2.14012,4.14513 3.36114,10.26843 3.0222,17.2642 -0.33894,6.99577 -2.13824,13.93775 -5.19512,17.82384 -3.05688,3.88608 -7.35445,6.17096 -16.75605,5.96841 -9.40161,-0.20258 -13.80621,-3.12075 -17.12697,-9.17768 -3.320763,-6.05692 -2.492666,-16.61065 -2.492666,-16.61065 z"
   id="path1-2-7" />
        <path
   style="fill:#ffffff;fill-opacity:1;stroke-width:0.264583"
   d="m 100.93637,124.08192 36.89834,-0.061 c 0,0 -2.33316,-10.65308 -6.99422,-10.74816 -4.66106,-0.0951 -13.67993,-0.26473 -23.78415,0.009 -3.47052,0.13538 -5.98611,9.72955 -5.98611,9.72955 z"
   id="path2" /></g></svg>
