<?xml version="1.0" encoding="UTF-8" standalone="no"?>
<!-- Created with Inkscape (http://www.inkscape.org/) -->

<svg
   width="83.675095mm"
   height="168.12549mm"
   viewBox="0 0 83.675095 168.12549"
   version="1.1"
   id="svg1"
   xml:space="preserve"
   xmlns:inkscape="http://www.inkscape.org/namespaces/inkscape"
   xmlns:sodipodi="http://sodipodi.sourceforge.net/DTD/sodipodi-0.dtd"
   xmlns="http://www.w3.org/2000/svg"
   xmlns:svg="http://www.w3.org/2000/svg"><sodipodi:namedview
     id="namedview1"
     pagecolor="#ffffff"
     bordercolor="#000000"
     borderopacity="0.25"
     inkscape:showpageshadow="2"
     inkscape:pageopacity="0.0"
     inkscape:pagecheckerboard="0"
     inkscape:deskcolor="#d1d1d1"
     inkscape:document-units="mm"
     inkscape:zoom="1.0482005"
     inkscape:cx="-346.3078"
     inkscape:cy="169.81484"
     inkscape:window-width="2560"
     inkscape:window-height="1387"
     inkscape:window-x="0"
     inkscape:window-y="25"
     inkscape:window-maximized="1"
     inkscape:current-layer="layer1" /><defs
     id="defs1" /><g
     id="layer1"
     transform="translate(-62.852812,-68.584322)"><path
       style="fill:#000000;stroke-width:0.264583"
       d="m 65.526517,78.555963 c 0,0 -0.535456,2.81115 5.644608,5.06453 6.18006,2.253379 11.445385,3.926681 11.445385,3.926681 0,0 3.438981,1.257843 6.938626,6.224685 4.658486,8.063911 12.480734,17.649821 14.234224,26.929011 0.52714,2.49451 1.08979,9.92478 1.08979,9.92478 l 3.15521,59.19173 c 0,0 0.86268,7.40259 1.89312,8.70837 1.03044,1.30578 3.37524,5.81514 16.04378,-0.54945 10.40596,-5.22788 15.19054,-9.35025 19.1368,-17.68766 0,3.28142 -0.1162,5.38667 -0.1162,5.38667 0,0 -4.09154,6.56128 -10.88189,10.27954 -6.68205,3.65896 -18.09397,10.01751 -32.19433,8.23265 -13.727411,-1.73765 -13.944186,-3.25736 -23.560097,-9.83902 -9.615911,-6.58165 -9.881125,-7.14194 -9.881125,-7.14194 -2.263946,-1.27957 -4.63673,-3.46136 -5.178596,-4.63811 -0.541866,-1.17675 0.02231,-97.118461 2.23107,-104.012467 z"
       id="path1" /><path
       style="fill:#000000;stroke-width:0.264583"
       d="m 65.682693,78.265924 c 0.101586,-0.722259 8.961865,-7.651516 8.461439,-6.124422 -0.500426,1.527094 1.355266,3.49176 6.977561,4.428811 5.622296,0.937048 9.638221,1.561748 12.226264,3.792817 2.58804,2.23107 17.937803,35.11704 26.103513,34.26923 8.16572,-0.84781 19.56704,-4.45246 23.03777,-6.598 3.47073,-2.14554 3.97556,-2.65038 4.03867,-5.80559 0,10.4753 -1.3883,76.54537 -1.3883,76.54537 0,0 -6.1211,11.73738 -14.82948,16.02846 -8.64041,4.25759 -16.5636,5.9376 -17.41675,4.4804 -2.03782,-4.11445 -2.435,-17.98312 -3.47073,-30.1638 -1.03573,-12.18068 -1.49295,-34.71889 -3.029,-44.42534 -1.53605,-9.70645 -0.53373,-7.04298 -6.436629,-17.60607 C 93.962125,96.360083 89.216382,87.874815 78.62781,85.316851 68.33279,82.829803 65.581107,78.988183 65.682693,78.265924 Z"
       id="path2"/><path
       style="fill:#000000;stroke-width:0.264583"
       d="m 63.167285,184.20111 c -1.191884,-1.69659 1.388291,24.92614 1.388291,24.92614 0,0 13.756711,27.19791 40.575984,27.57653 26.81928,0.37863 37.79941,-17.16434 38.55666,-24.1058 0.75725,-6.94146 2.27175,-23.28544 1.51449,-25.93582 -2.20864,3.47073 -7.97494,15.21841 -30.73172,18.42643 -20.73608,2.92316 -30.163341,-4.5432 -33.760742,-7.5094 -3.5974,-2.9662 -16.35108,-11.6815 -17.542963,-13.37808 z"
       id="path3" /><a
       id="a4"><path
         style="fill:#000000;stroke-width:0.264583"
         d="m 132.59025,73.01572 c 2.34181,1.271289 11.4682,22.640376 12.83875,26.117776 1.37054,3.477394 0.56531,7.322484 -0.33455,5.156824 -3.38197,-8.139151 -13.04037,-28.660889 -15.45998,-30.156906 -2.06682,-1.057705 -23.90102,3.437024 -34.915096,6.071998 0,0 -1.766916,-2.208646 -6.878354,-3.281415 -4.669711,-0.946563 -14.703274,-1.956231 -11.800483,-5.426961 4.164875,-1.766917 21.287763,-3.038514 25.430983,-2.902792 5.55317,0.378624 13.98303,0.879915 20.33775,1.973097 2.21323,0.380735 8.43917,1.17709 10.78098,2.448379 z"
         id="path4" /></a></g></svg>
